<svg width="292" height="135" viewBox="0 0 292 135" fill="none" xmlns="http://www.w3.org/2000/svg">
<rect x="1" y="106.09" width="290" height="2.00226" fill="#FF9000"/>
<rect x="1" y="26" width="290" height="2.00226" fill="#FF9000"/>
<path d="M5.23306 81V46.2H14.8811C18.3371 46.2 21.2651 46.728 23.6651 47.784C26.0651 48.808 28.0171 50.2 29.5211 51.96C31.0251 53.688 32.1131 55.608 32.7851 57.72C33.4891 59.832 33.8411 61.944 33.8411 64.056C33.8411 66.648 33.3771 69 32.4491 71.112C31.5531 73.192 30.2891 74.968 28.6571 76.44C27.0571 77.912 25.2171 79.048 23.1371 79.848C21.0571 80.616 18.8651 81 16.5611 81H5.23306ZM10.2251 76.152H15.6011C18.1291 76.152 20.3691 75.672 22.3211 74.712C24.2731 73.752 25.8091 72.344 26.9291 70.488C28.0811 68.632 28.6571 66.376 28.6571 63.72C28.6571 61.544 28.2891 59.672 27.5531 58.104C26.8491 56.504 25.9051 55.192 24.7211 54.168C23.5371 53.112 22.2091 52.328 20.7371 51.816C19.2651 51.304 17.7611 51.048 16.2251 51.048H10.2251V76.152ZM40.3623 60.936H45.2103V81H40.3623V60.936ZM40.1223 53.736C40.1223 53 40.4103 52.376 40.9863 51.864C41.5943 51.352 42.2503 51.096 42.9543 51.096C43.6583 51.096 44.2983 51.352 44.8743 51.864C45.4503 52.376 45.7383 53 45.7383 53.736C45.7383 54.536 45.4503 55.176 44.8743 55.656C44.2983 56.136 43.6583 56.376 42.9543 56.376C42.2503 56.376 41.5943 56.136 40.9863 55.656C40.4103 55.176 40.1223 54.536 40.1223 53.736ZM62.5762 90.984C61.0402 90.984 59.6962 90.792 58.5442 90.408C57.3922 90.056 56.3522 89.576 55.4242 88.968C54.5282 88.36 53.6642 87.688 52.8322 86.952L55.7122 83.64C56.7042 84.6 57.7282 85.352 58.7842 85.896C59.8722 86.44 61.1042 86.712 62.4802 86.712C64.6562 86.712 66.3362 86.2 67.5202 85.176C68.7042 84.152 69.3122 82.776 69.3442 81.048V75.816L69.6802 76.728C69.1042 78.072 68.0802 79.208 66.6082 80.136C65.1682 81.032 63.3762 81.48 61.2322 81.48C59.3762 81.48 57.6802 81.016 56.1442 80.088C54.6082 79.16 53.3762 77.896 52.4482 76.296C51.5202 74.696 51.0562 72.888 51.0562 70.872C51.0562 68.792 51.5362 66.952 52.4962 65.352C53.4882 63.72 54.7842 62.44 56.3842 61.512C57.9842 60.584 59.6962 60.12 61.5202 60.12C63.3122 60.12 64.9122 60.456 66.3202 61.128C67.7602 61.8 68.8162 62.664 69.4882 63.72L69.2482 64.536L69.7282 60.936H74.1922V81.144C74.1922 82.968 73.7122 84.616 72.7522 86.088C71.7922 87.592 70.4482 88.776 68.7202 89.64C66.9922 90.536 64.9442 90.984 62.5762 90.984ZM55.9522 70.728C55.9522 72.008 56.2402 73.16 56.8162 74.184C57.4242 75.208 58.2242 76.024 59.2162 76.632C60.2402 77.208 61.3762 77.496 62.6242 77.496C64.3202 77.496 65.7602 77.064 66.9442 76.2C68.1282 75.304 68.9282 74.168 69.3442 72.792V68.664C68.9282 67.288 68.1122 66.184 66.8962 65.352C65.6802 64.488 64.2562 64.056 62.6242 64.056C61.3762 64.056 60.2402 64.344 59.2162 64.92C58.2242 65.496 57.4242 66.28 56.8162 67.272C56.2402 68.264 55.9522 69.416 55.9522 70.728ZM81.7529 60.936H86.6009V81H81.7529V60.936ZM81.5129 53.736C81.5129 53 81.8009 52.376 82.3769 51.864C82.9849 51.352 83.6409 51.096 84.3449 51.096C85.0489 51.096 85.6889 51.352 86.2649 51.864C86.8409 52.376 87.1289 53 87.1289 53.736C87.1289 54.536 86.8409 55.176 86.2649 55.656C85.6889 56.136 85.0489 56.376 84.3449 56.376C83.6409 56.376 82.9849 56.136 82.3769 55.656C81.8009 55.176 81.5129 54.536 81.5129 53.736ZM96.0948 52.152H100.991V60.984H106.367V64.776H100.991V81H96.0948V64.776H92.5428V60.984H96.0948V52.152ZM120.106 81.48C118.218 81.48 116.506 81.08 114.97 80.28C113.434 79.48 112.218 78.312 111.322 76.776C110.426 75.208 109.978 73.272 109.978 70.968C109.978 68.728 110.442 66.808 111.37 65.208C112.33 63.576 113.578 62.328 115.114 61.464C116.682 60.568 118.378 60.12 120.202 60.12C122.122 60.12 123.706 60.52 124.954 61.32C126.202 62.12 127.162 63.08 127.834 64.2L127.546 64.968L128.026 60.936H132.49V81H127.642V75.912L128.122 77.112C127.994 77.368 127.722 77.736 127.306 78.216C126.89 78.696 126.346 79.192 125.674 79.704C125.002 80.184 124.186 80.6 123.226 80.952C122.298 81.304 121.258 81.48 120.106 81.48ZM121.402 77.496C123.002 77.496 124.346 77.08 125.434 76.248C126.554 75.384 127.29 74.216 127.642 72.744V68.616C127.258 67.304 126.474 66.216 125.29 65.352C124.138 64.488 122.794 64.056 121.258 64.056C120.106 64.056 119.05 64.344 118.09 64.92C117.13 65.464 116.362 66.248 115.786 67.272C115.21 68.264 114.922 69.416 114.922 70.728C114.922 72.008 115.21 73.16 115.786 74.184C116.394 75.208 117.194 76.024 118.186 76.632C119.178 77.208 120.25 77.496 121.402 77.496ZM140.065 43.704H144.913V81H140.065V43.704ZM157.33 46.2H180.514V51.048H171.298V81H166.258V51.048H157.33V46.2ZM188.12 60.936L188.6 66.696L188.408 65.928C188.952 64.712 189.704 63.672 190.664 62.808C191.656 61.944 192.68 61.288 193.736 60.84C194.824 60.36 195.736 60.12 196.472 60.12L196.232 64.92C194.728 64.824 193.4 65.112 192.248 65.784C191.128 66.456 190.248 67.352 189.608 68.472C188.968 69.592 188.648 70.792 188.648 72.072V81H183.8V60.936H188.12ZM209.965 81.48C208.077 81.48 206.365 81.08 204.829 80.28C203.293 79.48 202.077 78.312 201.181 76.776C200.285 75.208 199.837 73.272 199.837 70.968C199.837 68.728 200.301 66.808 201.229 65.208C202.189 63.576 203.437 62.328 204.973 61.464C206.541 60.568 208.237 60.12 210.061 60.12C211.981 60.12 213.565 60.52 214.813 61.32C216.061 62.12 217.021 63.08 217.693 64.2L217.405 64.968L217.885 60.936H222.349V81H217.501V75.912L217.981 77.112C217.853 77.368 217.581 77.736 217.165 78.216C216.749 78.696 216.205 79.192 215.533 79.704C214.861 80.184 214.045 80.6 213.085 80.952C212.157 81.304 211.117 81.48 209.965 81.48ZM211.261 77.496C212.861 77.496 214.205 77.08 215.293 76.248C216.413 75.384 217.149 74.216 217.501 72.744V68.616C217.117 67.304 216.333 66.216 215.149 65.352C213.997 64.488 212.653 64.056 211.117 64.056C209.965 64.056 208.909 64.344 207.949 64.92C206.989 65.464 206.221 66.248 205.645 67.272C205.069 68.264 204.781 69.416 204.781 70.728C204.781 72.008 205.069 73.16 205.645 74.184C206.253 75.208 207.053 76.024 208.045 76.632C209.037 77.208 210.109 77.496 211.261 77.496ZM246.341 79.128C245.445 79.864 244.357 80.44 243.077 80.856C241.829 81.272 240.565 81.48 239.285 81.48C237.109 81.48 235.173 81.048 233.477 80.184C231.813 79.32 230.517 78.104 229.589 76.536C228.661 74.968 228.197 73.112 228.197 70.968C228.197 68.792 228.693 66.92 229.685 65.352C230.677 63.784 231.973 62.584 233.573 61.752C235.205 60.888 236.949 60.456 238.805 60.456C240.469 60.456 241.925 60.68 243.173 61.128C244.453 61.576 245.557 62.2 246.485 63L244.085 66.12C243.541 65.672 242.853 65.272 242.021 64.92C241.189 64.568 240.261 64.392 239.237 64.392C238.085 64.392 237.029 64.68 236.069 65.256C235.141 65.832 234.405 66.616 233.861 67.608C233.317 68.6 233.045 69.72 233.045 70.968C233.045 72.184 233.317 73.288 233.861 74.28C234.437 75.272 235.221 76.056 236.213 76.632C237.237 77.208 238.389 77.496 239.669 77.496C240.501 77.496 241.269 77.368 241.973 77.112C242.709 76.856 243.349 76.52 243.893 76.104L246.341 79.128ZM261.411 81.48C259.107 81.48 257.123 81.032 255.459 80.136C253.795 79.208 252.515 77.944 251.619 76.344C250.723 74.712 250.275 72.872 250.275 70.824C250.275 68.84 250.771 67.048 251.763 65.448C252.787 63.816 254.147 62.52 255.843 61.56C257.539 60.6 259.427 60.12 261.507 60.12C264.195 60.12 266.419 60.904 268.179 62.472C269.971 64.008 271.171 66.184 271.779 69L255.411 74.664L254.259 71.88L267.411 67.08L266.403 67.752C266.019 66.728 265.411 65.848 264.579 65.112C263.747 64.344 262.611 63.96 261.171 63.96C259.379 63.96 257.907 64.584 256.755 65.832C255.635 67.048 255.075 68.616 255.075 70.536C255.075 72.584 255.683 74.232 256.899 75.48C258.115 76.728 259.651 77.352 261.507 77.352C262.371 77.352 263.203 77.208 264.003 76.92C264.803 76.6 265.555 76.184 266.259 75.672L268.467 79.272C267.443 79.944 266.307 80.488 265.059 80.904C263.843 81.288 262.627 81.48 261.411 81.48ZM281.542 60.936L282.022 66.696L281.83 65.928C282.374 64.712 283.126 63.672 284.086 62.808C285.078 61.944 286.102 61.288 287.158 60.84C288.246 60.36 289.158 60.12 289.894 60.12L289.654 64.92C288.15 64.824 286.822 65.112 285.67 65.784C284.55 66.456 283.67 67.352 283.03 68.472C282.39 69.592 282.07 70.792 282.07 72.072V81H277.222V60.936H281.542Z" fill="#18181B"/>
<path d="M191.178 128.232C191.058 128.336 190.89 128.44 190.674 128.544C190.458 128.648 190.214 128.744 189.942 128.832C189.678 128.912 189.406 128.976 189.126 129.024C188.846 129.072 188.582 129.096 188.334 129.096C187.406 129.096 186.602 128.912 185.922 128.544C185.242 128.168 184.714 127.66 184.338 127.02C183.97 126.38 183.786 125.652 183.786 124.836C183.786 124.092 183.902 123.432 184.134 122.856C184.374 122.28 184.702 121.796 185.118 121.404C185.534 121.012 186.006 120.716 186.534 120.516C187.07 120.308 187.638 120.204 188.238 120.204C188.758 120.204 189.238 120.264 189.678 120.384C190.118 120.504 190.502 120.656 190.83 120.84L190.41 122.004C190.25 121.908 190.05 121.82 189.81 121.74C189.578 121.652 189.334 121.584 189.078 121.536C188.83 121.488 188.602 121.464 188.394 121.464C187.722 121.464 187.138 121.596 186.642 121.86C186.146 122.124 185.762 122.5 185.49 122.988C185.218 123.476 185.082 124.056 185.082 124.728C185.082 125.344 185.218 125.888 185.49 126.36C185.77 126.824 186.154 127.188 186.642 127.452C187.138 127.716 187.71 127.848 188.358 127.848C188.646 127.848 188.926 127.82 189.198 127.764C189.478 127.708 189.714 127.624 189.906 127.512V125.904H188.214V124.692H191.178V128.232ZM195.425 129.12C194.849 129.12 194.353 129.008 193.937 128.784C193.521 128.552 193.201 128.236 192.977 127.836C192.753 127.428 192.641 126.968 192.641 126.456C192.641 125.96 192.765 125.512 193.013 125.112C193.269 124.704 193.609 124.38 194.033 124.14C194.457 123.9 194.929 123.78 195.449 123.78C196.121 123.78 196.677 123.976 197.117 124.368C197.565 124.752 197.865 125.296 198.017 126L193.925 127.416L193.637 126.72L196.925 125.52L196.673 125.688C196.577 125.432 196.425 125.212 196.217 125.028C196.009 124.836 195.725 124.74 195.365 124.74C194.917 124.74 194.549 124.896 194.261 125.208C193.981 125.512 193.841 125.904 193.841 126.384C193.841 126.896 193.993 127.308 194.297 127.62C194.601 127.932 194.985 128.088 195.449 128.088C195.665 128.088 195.873 128.052 196.073 127.98C196.273 127.9 196.461 127.796 196.637 127.668L197.189 128.568C196.933 128.736 196.649 128.872 196.337 128.976C196.033 129.072 195.729 129.12 195.425 129.12ZM200.83 129.108C200.462 129.108 200.11 129.044 199.774 128.916C199.438 128.78 199.154 128.588 198.922 128.34L199.438 127.644C199.646 127.844 199.862 127.996 200.086 128.1C200.318 128.204 200.534 128.256 200.734 128.256C200.966 128.256 201.17 128.212 201.346 128.124C201.522 128.028 201.61 127.872 201.61 127.656C201.61 127.48 201.55 127.344 201.43 127.248C201.318 127.152 201.174 127.072 200.998 127.008C200.822 126.944 200.634 126.884 200.434 126.828C200.018 126.692 199.698 126.5 199.474 126.252C199.258 125.996 199.15 125.696 199.15 125.352C199.15 125.088 199.214 124.84 199.342 124.608C199.478 124.368 199.682 124.176 199.954 124.032C200.226 123.88 200.562 123.804 200.962 123.804C201.314 123.804 201.63 123.848 201.91 123.936C202.19 124.016 202.45 124.156 202.69 124.356L202.222 125.088C202.078 124.944 201.906 124.836 201.706 124.764C201.514 124.684 201.338 124.64 201.178 124.632C200.962 124.632 200.774 124.684 200.614 124.788C200.454 124.884 200.374 125.016 200.374 125.184C200.374 125.352 200.43 125.488 200.542 125.592C200.654 125.688 200.798 125.768 200.974 125.832C201.158 125.888 201.342 125.948 201.526 126.012C201.894 126.132 202.198 126.296 202.438 126.504C202.686 126.712 202.81 127.016 202.81 127.416C202.81 127.72 202.738 128 202.594 128.256C202.45 128.512 202.23 128.72 201.934 128.88C201.646 129.032 201.278 129.108 200.83 129.108ZM204.826 121.788H206.05V123.996H207.394V124.944H206.05V129H204.826V124.944H203.938V123.996H204.826V121.788ZM210.829 129.12C210.357 129.12 209.929 129.02 209.545 128.82C209.161 128.62 208.857 128.328 208.633 127.944C208.409 127.552 208.297 127.068 208.297 126.492C208.297 125.932 208.413 125.452 208.645 125.052C208.885 124.644 209.197 124.332 209.581 124.116C209.973 123.892 210.397 123.78 210.853 123.78C211.333 123.78 211.729 123.88 212.041 124.08C212.353 124.28 212.593 124.52 212.761 124.8L212.689 124.992L212.809 123.984H213.925V129H212.713V127.728L212.833 128.028C212.801 128.092 212.733 128.184 212.629 128.304C212.525 128.424 212.389 128.548 212.221 128.676C212.053 128.796 211.849 128.9 211.609 128.988C211.377 129.076 211.117 129.12 210.829 129.12ZM211.153 128.124C211.553 128.124 211.889 128.02 212.161 127.812C212.441 127.596 212.625 127.304 212.713 126.936V125.904C212.617 125.576 212.421 125.304 212.125 125.088C211.837 124.872 211.501 124.764 211.117 124.764C210.829 124.764 210.565 124.836 210.325 124.98C210.085 125.116 209.893 125.312 209.749 125.568C209.605 125.816 209.533 126.104 209.533 126.432C209.533 126.752 209.605 127.04 209.749 127.296C209.901 127.552 210.101 127.756 210.349 127.908C210.597 128.052 210.865 128.124 211.153 128.124ZM212.425 123.312C212.161 123.312 211.945 123.256 211.777 123.144C211.609 123.024 211.453 122.9 211.309 122.772C211.221 122.684 211.129 122.604 211.033 122.532C210.937 122.46 210.833 122.424 210.721 122.424C210.569 122.424 210.449 122.508 210.361 122.676C210.273 122.844 210.233 123.056 210.241 123.312H209.605C209.581 123 209.613 122.716 209.701 122.46C209.789 122.204 209.925 122.004 210.109 121.86C210.301 121.708 210.525 121.632 210.781 121.632C210.989 121.632 211.169 121.688 211.321 121.8C211.473 121.912 211.613 122.032 211.741 122.16C211.853 122.264 211.961 122.356 212.065 122.436C212.169 122.516 212.277 122.556 212.389 122.556C212.549 122.556 212.661 122.472 212.725 122.304C212.789 122.128 212.817 121.904 212.809 121.632H213.457C213.497 121.968 213.473 122.264 213.385 122.52C213.297 122.768 213.169 122.964 213.001 123.108C212.833 123.244 212.641 123.312 212.425 123.312ZM215.387 126.444C215.387 125.94 215.507 125.488 215.747 125.088C215.987 124.68 216.319 124.36 216.743 124.128C217.167 123.896 217.651 123.78 218.195 123.78C218.747 123.78 219.227 123.896 219.635 124.128C220.051 124.36 220.371 124.68 220.595 125.088C220.827 125.488 220.943 125.94 220.943 126.444C220.943 126.948 220.827 127.404 220.595 127.812C220.363 128.212 220.039 128.532 219.623 128.772C219.215 129.004 218.731 129.12 218.171 129.12C217.643 129.12 217.167 129.012 216.743 128.796C216.327 128.58 215.995 128.272 215.747 127.872C215.507 127.464 215.387 126.988 215.387 126.444ZM216.611 126.456C216.611 126.768 216.679 127.052 216.815 127.308C216.951 127.556 217.135 127.756 217.367 127.908C217.607 128.052 217.871 128.124 218.159 128.124C218.615 128.124 218.987 127.964 219.275 127.644C219.571 127.324 219.719 126.928 219.719 126.456C219.719 125.984 219.571 125.588 219.275 125.268C218.987 124.94 218.615 124.776 218.159 124.776C217.863 124.776 217.599 124.852 217.367 125.004C217.135 125.156 216.951 125.36 216.815 125.616C216.679 125.872 216.611 126.152 216.611 126.456ZM226.016 129.12C225.544 129.12 225.12 129.012 224.744 128.796C224.368 128.572 224.072 128.256 223.856 127.848C223.64 127.44 223.532 126.964 223.532 126.42C223.532 125.86 223.648 125.384 223.88 124.992C224.112 124.6 224.424 124.3 224.816 124.092C225.216 123.884 225.664 123.78 226.16 123.78C226.544 123.78 226.908 123.86 227.252 124.02C227.604 124.172 227.88 124.388 228.08 124.668L228.032 125.088V119.676H229.244V129H228.02V127.8L228.152 128.124C227.912 128.412 227.608 128.652 227.24 128.844C226.88 129.028 226.472 129.12 226.016 129.12ZM226.388 128.1C226.812 128.1 227.164 127.992 227.444 127.776C227.732 127.552 227.924 127.256 228.02 126.888V125.892C227.932 125.556 227.736 125.28 227.432 125.064C227.136 124.848 226.788 124.74 226.388 124.74C226.1 124.74 225.832 124.812 225.584 124.956C225.336 125.092 225.136 125.288 224.984 125.544C224.84 125.792 224.768 126.08 224.768 126.408C224.768 126.72 224.84 127.004 224.984 127.26C225.136 127.516 225.336 127.72 225.584 127.872C225.832 128.024 226.1 128.1 226.388 128.1ZM233.488 129.12C232.912 129.12 232.416 129.008 232 128.784C231.584 128.552 231.264 128.236 231.04 127.836C230.816 127.428 230.704 126.968 230.704 126.456C230.704 125.96 230.828 125.512 231.076 125.112C231.332 124.704 231.672 124.38 232.096 124.14C232.52 123.9 232.992 123.78 233.512 123.78C234.184 123.78 234.74 123.976 235.18 124.368C235.628 124.752 235.928 125.296 236.08 126L231.988 127.416L231.7 126.72L234.988 125.52L234.736 125.688C234.64 125.432 234.488 125.212 234.28 125.028C234.072 124.836 233.788 124.74 233.428 124.74C232.98 124.74 232.612 124.896 232.324 125.208C232.044 125.512 231.904 125.904 231.904 126.384C231.904 126.896 232.056 127.308 232.36 127.62C232.664 127.932 233.048 128.088 233.512 128.088C233.728 128.088 233.936 128.052 234.136 127.98C234.336 127.9 234.524 127.796 234.7 127.668L235.252 128.568C234.996 128.736 234.712 128.872 234.4 128.976C234.096 129.072 233.792 129.12 233.488 129.12ZM241.999 129.12C241.631 129.12 241.275 129.04 240.931 128.88C240.595 128.712 240.331 128.484 240.139 128.196L240.211 127.824V131.412H238.999V123.9H240.043L240.211 125.136L240.091 124.788C240.331 124.492 240.631 124.252 240.991 124.068C241.359 123.876 241.771 123.78 242.227 123.78C242.699 123.78 243.123 123.892 243.499 124.116C243.875 124.34 244.171 124.656 244.387 125.064C244.603 125.464 244.711 125.936 244.711 126.48C244.711 127.024 244.591 127.496 244.351 127.896C244.119 128.288 243.799 128.592 243.391 128.808C242.983 129.016 242.519 129.12 241.999 129.12ZM241.759 128.16C242.071 128.16 242.355 128.088 242.611 127.944C242.875 127.8 243.083 127.604 243.235 127.356C243.395 127.1 243.475 126.812 243.475 126.492C243.475 126.164 243.403 125.872 243.259 125.616C243.115 125.36 242.919 125.16 242.671 125.016C242.423 124.872 242.147 124.8 241.843 124.8C241.427 124.8 241.075 124.912 240.787 125.136C240.507 125.36 240.315 125.656 240.211 126.024V126.924C240.275 127.284 240.451 127.58 240.739 127.812C241.027 128.044 241.367 128.16 241.759 128.16ZM247.251 123.984L247.371 125.424L247.323 125.232C247.459 124.928 247.647 124.668 247.887 124.452C248.135 124.236 248.391 124.072 248.655 123.96C248.927 123.84 249.155 123.78 249.339 123.78L249.279 124.98C248.903 124.956 248.571 125.028 248.283 125.196C248.003 125.364 247.783 125.588 247.623 125.868C247.463 126.148 247.383 126.448 247.383 126.768V129H246.171V123.984H247.251ZM250.098 126.444C250.098 125.94 250.218 125.488 250.458 125.088C250.698 124.68 251.03 124.36 251.454 124.128C251.878 123.896 252.362 123.78 252.906 123.78C253.458 123.78 253.938 123.896 254.346 124.128C254.762 124.36 255.082 124.68 255.306 125.088C255.538 125.488 255.654 125.94 255.654 126.444C255.654 126.948 255.538 127.404 255.306 127.812C255.074 128.212 254.75 128.532 254.334 128.772C253.926 129.004 253.442 129.12 252.882 129.12C252.354 129.12 251.878 129.012 251.454 128.796C251.038 128.58 250.706 128.272 250.458 127.872C250.218 127.464 250.098 126.988 250.098 126.444ZM251.322 126.456C251.322 126.768 251.39 127.052 251.526 127.308C251.662 127.556 251.846 127.756 252.078 127.908C252.318 128.052 252.582 128.124 252.87 128.124C253.326 128.124 253.698 127.964 253.986 127.644C254.282 127.324 254.43 126.928 254.43 126.456C254.43 125.984 254.282 125.588 253.986 125.268C253.698 124.94 253.326 124.776 252.87 124.776C252.574 124.776 252.31 124.852 252.078 125.004C251.846 125.156 251.662 125.36 251.526 125.616C251.39 125.872 251.322 126.152 251.322 126.456ZM259.168 129.12C258.696 129.12 258.272 129.012 257.896 128.796C257.52 128.572 257.224 128.256 257.008 127.848C256.792 127.44 256.684 126.964 256.684 126.42C256.684 125.86 256.8 125.384 257.032 124.992C257.264 124.6 257.576 124.3 257.968 124.092C258.368 123.884 258.816 123.78 259.312 123.78C259.696 123.78 260.06 123.86 260.404 124.02C260.756 124.172 261.032 124.388 261.232 124.668L261.184 125.088V119.676H262.396V129H261.172V127.8L261.304 128.124C261.064 128.412 260.76 128.652 260.392 128.844C260.032 129.028 259.624 129.12 259.168 129.12ZM259.54 128.1C259.964 128.1 260.316 127.992 260.596 127.776C260.884 127.552 261.076 127.256 261.172 126.888V125.892C261.084 125.556 260.888 125.28 260.584 125.064C260.288 124.848 259.94 124.74 259.54 124.74C259.252 124.74 258.984 124.812 258.736 124.956C258.488 125.092 258.288 125.288 258.136 125.544C257.992 125.792 257.92 126.08 257.92 126.408C257.92 126.72 257.992 127.004 258.136 127.26C258.288 127.516 258.488 127.72 258.736 127.872C258.984 128.024 259.252 128.1 259.54 128.1ZM265.896 129.204C265.432 129.204 265.052 129.064 264.756 128.784C264.46 128.504 264.304 128.144 264.288 127.704V123.984H265.5V127.272C265.516 127.536 265.592 127.748 265.728 127.908C265.864 128.068 266.08 128.156 266.376 128.172C266.648 128.172 266.892 128.092 267.108 127.932C267.324 127.764 267.492 127.536 267.612 127.248C267.74 126.96 267.804 126.636 267.804 126.276V123.984H269.016V129H267.924L267.828 127.824L267.876 128.016C267.724 128.36 267.468 128.644 267.108 128.868C266.756 129.092 266.352 129.204 265.896 129.204ZM271.401 121.788H272.625V123.996H273.969V124.944H272.625V129H271.401V124.944H270.513V123.996H271.401V121.788ZM274.871 126.444C274.871 125.94 274.991 125.488 275.231 125.088C275.471 124.68 275.803 124.36 276.227 124.128C276.651 123.896 277.135 123.78 277.679 123.78C278.231 123.78 278.711 123.896 279.119 124.128C279.535 124.36 279.855 124.68 280.079 125.088C280.311 125.488 280.427 125.94 280.427 126.444C280.427 126.948 280.311 127.404 280.079 127.812C279.847 128.212 279.523 128.532 279.107 128.772C278.699 129.004 278.215 129.12 277.655 129.12C277.127 129.12 276.651 129.012 276.227 128.796C275.811 128.58 275.479 128.272 275.231 127.872C274.991 127.464 274.871 126.988 274.871 126.444ZM276.095 126.456C276.095 126.768 276.163 127.052 276.299 127.308C276.435 127.556 276.619 127.756 276.851 127.908C277.091 128.052 277.355 128.124 277.643 128.124C278.099 128.124 278.471 127.964 278.759 127.644C279.055 127.324 279.203 126.928 279.203 126.456C279.203 125.984 279.055 125.588 278.759 125.268C278.471 124.94 278.099 124.776 277.643 124.776C277.347 124.776 277.083 124.852 276.851 125.004C276.619 125.156 276.435 125.36 276.299 125.616C276.163 125.872 276.095 126.152 276.095 126.456ZM283.341 129.108C282.973 129.108 282.621 129.044 282.285 128.916C281.949 128.78 281.665 128.588 281.433 128.34L281.949 127.644C282.157 127.844 282.373 127.996 282.597 128.1C282.829 128.204 283.045 128.256 283.245 128.256C283.477 128.256 283.681 128.212 283.857 128.124C284.033 128.028 284.121 127.872 284.121 127.656C284.121 127.48 284.061 127.344 283.941 127.248C283.829 127.152 283.685 127.072 283.509 127.008C283.333 126.944 283.145 126.884 282.945 126.828C282.529 126.692 282.209 126.5 281.985 126.252C281.769 125.996 281.661 125.696 281.661 125.352C281.661 125.088 281.725 124.84 281.853 124.608C281.989 124.368 282.193 124.176 282.465 124.032C282.737 123.88 283.073 123.804 283.473 123.804C283.825 123.804 284.141 123.848 284.421 123.936C284.701 124.016 284.961 124.156 285.201 124.356L284.733 125.088C284.589 124.944 284.417 124.836 284.217 124.764C284.025 124.684 283.849 124.64 283.689 124.632C283.473 124.632 283.285 124.684 283.125 124.788C282.965 124.884 282.885 125.016 282.885 125.184C282.885 125.352 282.941 125.488 283.053 125.592C283.165 125.688 283.309 125.768 283.485 125.832C283.669 125.888 283.853 125.948 284.037 126.012C284.405 126.132 284.709 126.296 284.949 126.504C285.197 126.712 285.321 127.016 285.321 127.416C285.321 127.72 285.249 128 285.105 128.256C284.961 128.512 284.741 128.72 284.445 128.88C284.157 129.032 283.789 129.108 283.341 129.108Z" fill="#18181B"/>
<path d="M7.08031 5.944C6.77631 5.784 6.44831 5.648 6.09631 5.536C5.74431 5.424 5.40431 5.368 5.07631 5.368C4.62031 5.368 4.26031 5.472 3.99631 5.68C3.73231 5.88 3.60031 6.16 3.60031 6.52C3.60031 6.768 3.68831 6.984 3.86431 7.168C4.04031 7.352 4.26831 7.512 4.54831 7.648C4.82831 7.784 5.12431 7.912 5.43631 8.032C5.79631 8.16 6.14431 8.324 6.48031 8.524C6.81631 8.716 7.09231 8.976 7.30831 9.304C7.52431 9.632 7.63231 10.072 7.63231 10.624C7.63231 11.08 7.51631 11.496 7.28431 11.872C7.05231 12.248 6.72031 12.548 6.28831 12.772C5.86431 12.988 5.35231 13.096 4.75231 13.096C4.19231 13.096 3.66031 13.008 3.15631 12.832C2.66031 12.648 2.23231 12.432 1.87231 12.184L2.43631 11.188C2.71631 11.404 3.06031 11.592 3.46831 11.752C3.87631 11.912 4.26431 11.992 4.63231 11.992C4.90431 11.992 5.16831 11.948 5.42431 11.86C5.68031 11.764 5.89231 11.616 6.06031 11.416C6.23631 11.216 6.32431 10.952 6.32431 10.624C6.32431 10.352 6.24831 10.12 6.09631 9.928C5.94431 9.736 5.74431 9.572 5.49631 9.436C5.25631 9.3 4.99631 9.18 4.71631 9.076C4.44431 8.972 4.16431 8.86 3.87631 8.74C3.59631 8.612 3.33631 8.456 3.09631 8.272C2.86431 8.088 2.67231 7.864 2.52031 7.6C2.37631 7.328 2.30431 7 2.30431 6.616C2.30431 6.144 2.41231 5.736 2.62831 5.392C2.85231 5.048 3.16031 4.776 3.55231 4.576C3.94431 4.376 4.39231 4.268 4.89631 4.252C5.47231 4.252 5.97631 4.324 6.40831 4.468C6.84031 4.604 7.22031 4.772 7.54831 4.972L7.08031 5.944ZM9.25269 7.984H10.4647V13H9.25269V7.984ZM9.19269 6.184C9.19269 6 9.26469 5.844 9.40869 5.716C9.56069 5.588 9.72469 5.524 9.90069 5.524C10.0767 5.524 10.2367 5.588 10.3807 5.716C10.5247 5.844 10.5967 6 10.5967 6.184C10.5967 6.384 10.5247 6.544 10.3807 6.664C10.2367 6.784 10.0767 6.844 9.90069 6.844C9.72469 6.844 9.56069 6.784 9.40869 6.664C9.26469 6.544 9.19269 6.384 9.19269 6.184ZM13.4502 7.984L13.5582 9.076L13.4982 8.98C13.6822 8.604 13.9422 8.312 14.2782 8.104C14.6222 7.888 15.0142 7.78 15.4542 7.78C15.8702 7.78 16.2182 7.876 16.4982 8.068C16.7782 8.26 16.9502 8.532 17.0142 8.884L16.9542 8.932C17.1542 8.572 17.4222 8.292 17.7582 8.092C18.0942 7.884 18.4462 7.78 18.8142 7.78C19.3102 7.78 19.7022 7.92 19.9902 8.2C20.2782 8.472 20.4262 8.832 20.4342 9.28V13H19.2342V9.736C19.2262 9.48 19.1662 9.268 19.0542 9.1C18.9502 8.932 18.7582 8.84 18.4782 8.824C18.1902 8.824 17.9342 8.912 17.7102 9.088C17.4942 9.264 17.3222 9.492 17.1942 9.772C17.0742 10.052 17.0102 10.352 17.0022 10.672V13H15.7902V9.736C15.7822 9.48 15.7182 9.268 15.5982 9.1C15.4862 8.932 15.2902 8.84 15.0102 8.824C14.7302 8.824 14.4782 8.912 14.2542 9.088C14.0382 9.264 13.8702 9.496 13.7502 9.784C13.6302 10.064 13.5702 10.364 13.5702 10.684V13H12.3582V7.984H13.4502ZM25.3308 13.12C24.9628 13.12 24.6068 13.04 24.2628 12.88C23.9268 12.712 23.6628 12.484 23.4708 12.196L23.5428 11.824V15.412H22.3308V7.9H23.3748L23.5428 9.136L23.4228 8.788C23.6628 8.492 23.9628 8.252 24.3228 8.068C24.6908 7.876 25.1028 7.78 25.5588 7.78C26.0308 7.78 26.4548 7.892 26.8308 8.116C27.2068 8.34 27.5028 8.656 27.7188 9.064C27.9348 9.464 28.0428 9.936 28.0428 10.48C28.0428 11.024 27.9228 11.496 27.6828 11.896C27.4508 12.288 27.1308 12.592 26.7228 12.808C26.3148 13.016 25.8508 13.12 25.3308 13.12ZM25.0908 12.16C25.4028 12.16 25.6868 12.088 25.9428 11.944C26.2068 11.8 26.4148 11.604 26.5668 11.356C26.7268 11.1 26.8068 10.812 26.8068 10.492C26.8068 10.164 26.7348 9.872 26.5908 9.616C26.4468 9.36 26.2508 9.16 26.0028 9.016C25.7548 8.872 25.4788 8.8 25.1748 8.8C24.7588 8.8 24.4068 8.912 24.1188 9.136C23.8388 9.36 23.6468 9.656 23.5428 10.024V10.924C23.6068 11.284 23.7828 11.58 24.0708 11.812C24.3588 12.044 24.6988 12.16 25.0908 12.16ZM29.5027 3.676H30.7147V13H29.5027V3.676ZM32.6082 7.984H33.8202V13H32.6082V7.984ZM32.5482 6.184C32.5482 6 32.6202 5.844 32.7642 5.716C32.9162 5.588 33.0802 5.524 33.2562 5.524C33.4322 5.524 33.5922 5.588 33.7362 5.716C33.8802 5.844 33.9522 6 33.9522 6.184C33.9522 6.384 33.8802 6.544 33.7362 6.664C33.5922 6.784 33.4322 6.844 33.2562 6.844C33.0802 6.844 32.9162 6.784 32.7642 6.664C32.6202 6.544 32.5482 6.384 32.5482 6.184ZM36.1336 13V9.064H35.2816V7.984H36.1336V5.932C36.1336 5.22 36.3016 4.668 36.6376 4.276C36.9816 3.876 37.4816 3.676 38.1376 3.676C38.3136 3.676 38.5056 3.704 38.7136 3.76C38.9296 3.808 39.1216 3.888 39.2896 4L38.7736 4.876C38.7016 4.796 38.6176 4.744 38.5216 4.72C38.4336 4.688 38.3456 4.672 38.2576 4.672C37.9776 4.672 37.7536 4.772 37.5856 4.972C37.4256 5.164 37.3456 5.492 37.3456 5.956V7.984H38.9296V9.064H37.3456V13H36.1336ZM40.366 7.984H41.578V13H40.366V7.984ZM40.306 6.184C40.306 6 40.378 5.844 40.522 5.716C40.674 5.588 40.838 5.524 41.014 5.524C41.19 5.524 41.35 5.588 41.494 5.716C41.638 5.844 41.71 6 41.71 6.184C41.71 6.384 41.638 6.544 41.494 6.664C41.35 6.784 41.19 6.844 41.014 6.844C40.838 6.844 40.674 6.784 40.522 6.664C40.378 6.544 40.306 6.384 40.306 6.184ZM45.4874 13.12C45.0474 13.12 44.6394 13.016 44.2634 12.808C43.8954 12.592 43.5994 12.288 43.3754 11.896C43.1514 11.496 43.0394 11.028 43.0394 10.492C43.0394 9.94 43.1594 9.464 43.3994 9.064C43.6394 8.656 43.9594 8.34 44.3594 8.116C44.7674 7.892 45.2074 7.78 45.6794 7.78C46.1274 7.78 46.5194 7.872 46.8554 8.056C47.1914 8.24 47.4594 8.484 47.6594 8.788L47.5274 9.136V7.9H48.7514V15.412H47.5394V11.764L47.5874 12.244C47.3874 12.5 47.1034 12.712 46.7354 12.88C46.3674 13.04 45.9514 13.12 45.4874 13.12ZM45.8954 12.16C46.3114 12.16 46.6674 12.048 46.9634 11.824C47.2674 11.592 47.4554 11.296 47.5274 10.936V10.024C47.4314 9.656 47.2394 9.36 46.9514 9.136C46.6714 8.912 46.3194 8.8 45.8954 8.8C45.6074 8.8 45.3394 8.876 45.0914 9.028C44.8434 9.18 44.6434 9.384 44.4914 9.64C44.3474 9.888 44.2754 10.172 44.2754 10.492C44.2754 10.804 44.3474 11.088 44.4914 11.344C44.6434 11.592 44.8434 11.792 45.0914 11.944C45.3394 12.088 45.6074 12.16 45.8954 12.16ZM52.2513 13.204C51.7873 13.204 51.4073 13.064 51.1113 12.784C50.8153 12.504 50.6593 12.144 50.6433 11.704V7.984H51.8553V11.272C51.8713 11.536 51.9473 11.748 52.0833 11.908C52.2193 12.068 52.4353 12.156 52.7313 12.172C53.0033 12.172 53.2473 12.092 53.4633 11.932C53.6793 11.764 53.8473 11.536 53.9673 11.248C54.0953 10.96 54.1593 10.636 54.1593 10.276V7.984H55.3713V13H54.2793L54.1833 11.824L54.2313 12.016C54.0793 12.36 53.8233 12.644 53.4633 12.868C53.1113 13.092 52.7073 13.204 52.2513 13.204ZM59.6281 13.12C59.0521 13.12 58.5561 13.008 58.1401 12.784C57.7241 12.552 57.4041 12.236 57.1801 11.836C56.9561 11.428 56.8441 10.968 56.8441 10.456C56.8441 9.96 56.9681 9.512 57.2161 9.112C57.4721 8.704 57.8121 8.38 58.2361 8.14C58.6601 7.9 59.1321 7.78 59.6521 7.78C60.3241 7.78 60.8801 7.976 61.3201 8.368C61.7681 8.752 62.0681 9.296 62.2201 10L58.1281 11.416L57.8401 10.72L61.1281 9.52L60.8761 9.688C60.7801 9.432 60.6281 9.212 60.4201 9.028C60.2121 8.836 59.9281 8.74 59.5681 8.74C59.1201 8.74 58.7521 8.896 58.4641 9.208C58.1841 9.512 58.0441 9.904 58.0441 10.384C58.0441 10.896 58.1961 11.308 58.5001 11.62C58.8041 11.932 59.1881 12.088 59.6521 12.088C59.8681 12.088 60.0761 12.052 60.2761 11.98C60.4761 11.9 60.6641 11.796 60.8401 11.668L61.3921 12.568C61.1361 12.736 60.8521 12.872 60.5401 12.976C60.2361 13.072 59.9321 13.12 59.6281 13.12ZM66.5914 13.108C66.2234 13.108 65.8714 13.044 65.5354 12.916C65.1994 12.78 64.9154 12.588 64.6834 12.34L65.1994 11.644C65.4074 11.844 65.6234 11.996 65.8474 12.1C66.0794 12.204 66.2954 12.256 66.4954 12.256C66.7274 12.256 66.9314 12.212 67.1074 12.124C67.2834 12.028 67.3714 11.872 67.3714 11.656C67.3714 11.48 67.3114 11.344 67.1914 11.248C67.0794 11.152 66.9354 11.072 66.7594 11.008C66.5834 10.944 66.3954 10.884 66.1954 10.828C65.7794 10.692 65.4594 10.5 65.2354 10.252C65.0194 9.996 64.9114 9.696 64.9114 9.352C64.9114 9.088 64.9754 8.84 65.1034 8.608C65.2394 8.368 65.4434 8.176 65.7154 8.032C65.9874 7.88 66.3234 7.804 66.7234 7.804C67.0754 7.804 67.3914 7.848 67.6714 7.936C67.9514 8.016 68.2114 8.156 68.4514 8.356L67.9834 9.088C67.8394 8.944 67.6674 8.836 67.4674 8.764C67.2754 8.684 67.0994 8.64 66.9394 8.632C66.7234 8.632 66.5354 8.684 66.3754 8.788C66.2154 8.884 66.1354 9.016 66.1354 9.184C66.1354 9.352 66.1914 9.488 66.3034 9.592C66.4154 9.688 66.5594 9.768 66.7354 9.832C66.9194 9.888 67.1034 9.948 67.2874 10.012C67.6554 10.132 67.9594 10.296 68.1994 10.504C68.4474 10.712 68.5714 11.016 68.5714 11.416C68.5714 11.72 68.4994 12 68.3554 12.256C68.2114 12.512 67.9914 12.72 67.6954 12.88C67.4074 13.032 67.0394 13.108 66.5914 13.108ZM71.7162 13.204C71.2522 13.204 70.8722 13.064 70.5762 12.784C70.2802 12.504 70.1242 12.144 70.1082 11.704V7.984H71.3202V11.272C71.3362 11.536 71.4122 11.748 71.5482 11.908C71.6842 12.068 71.9002 12.156 72.1962 12.172C72.4682 12.172 72.7122 12.092 72.9282 11.932C73.1442 11.764 73.3122 11.536 73.4322 11.248C73.5602 10.96 73.6242 10.636 73.6242 10.276V7.984H74.8362V13H73.7442L73.6482 11.824L73.6962 12.016C73.5442 12.36 73.2882 12.644 72.9282 12.868C72.5762 13.092 72.1722 13.204 71.7162 13.204ZM78.841 13.12C78.369 13.12 77.941 13.02 77.557 12.82C77.173 12.62 76.869 12.328 76.645 11.944C76.421 11.552 76.309 11.068 76.309 10.492C76.309 9.932 76.425 9.452 76.657 9.052C76.897 8.644 77.209 8.332 77.593 8.116C77.985 7.892 78.409 7.78 78.865 7.78C79.345 7.78 79.741 7.88 80.053 8.08C80.365 8.28 80.605 8.52 80.773 8.8L80.701 8.992L80.821 7.984H81.937V13H80.725V11.728L80.845 12.028C80.813 12.092 80.745 12.184 80.641 12.304C80.537 12.424 80.401 12.548 80.233 12.676C80.065 12.796 79.861 12.9 79.621 12.988C79.389 13.076 79.129 13.12 78.841 13.12ZM79.165 12.124C79.565 12.124 79.901 12.02 80.173 11.812C80.453 11.596 80.637 11.304 80.725 10.936V9.904C80.629 9.576 80.433 9.304 80.137 9.088C79.849 8.872 79.513 8.764 79.129 8.764C78.841 8.764 78.577 8.836 78.337 8.98C78.097 9.116 77.905 9.312 77.761 9.568C77.617 9.816 77.545 10.104 77.545 10.432C77.545 10.752 77.617 11.04 77.761 11.296C77.913 11.552 78.113 11.756 78.361 11.908C78.609 12.052 78.877 12.124 79.165 12.124ZM86.4694 7.984L86.5894 9.424L86.5414 9.232C86.6774 8.928 86.8654 8.668 87.1054 8.452C87.3534 8.236 87.6094 8.072 87.8734 7.96C88.1454 7.84 88.3734 7.78 88.5574 7.78L88.4974 8.98C88.1214 8.956 87.7894 9.028 87.5014 9.196C87.2214 9.364 87.0014 9.588 86.8414 9.868C86.6814 10.148 86.6014 10.448 86.6014 10.768V13H85.3894V7.984H86.4694ZM89.3168 10.444C89.3168 9.94 89.4368 9.488 89.6768 9.088C89.9168 8.68 90.2488 8.36 90.6728 8.128C91.0968 7.896 91.5808 7.78 92.1248 7.78C92.6768 7.78 93.1568 7.896 93.5648 8.128C93.9808 8.36 94.3008 8.68 94.5248 9.088C94.7568 9.488 94.8728 9.94 94.8728 10.444C94.8728 10.948 94.7568 11.404 94.5248 11.812C94.2928 12.212 93.9688 12.532 93.5528 12.772C93.1448 13.004 92.6608 13.12 92.1008 13.12C91.5728 13.12 91.0968 13.012 90.6728 12.796C90.2568 12.58 89.9248 12.272 89.6768 11.872C89.4368 11.464 89.3168 10.988 89.3168 10.444ZM90.5408 10.456C90.5408 10.768 90.6088 11.052 90.7448 11.308C90.8808 11.556 91.0648 11.756 91.2968 11.908C91.5368 12.052 91.8008 12.124 92.0888 12.124C92.5448 12.124 92.9168 11.964 93.2048 11.644C93.5008 11.324 93.6488 10.928 93.6488 10.456C93.6488 9.984 93.5008 9.588 93.2048 9.268C92.9168 8.94 92.5448 8.776 92.0888 8.776C91.7928 8.776 91.5288 8.852 91.2968 9.004C91.0648 9.156 90.8808 9.36 90.7448 9.616C90.6088 9.872 90.5408 10.152 90.5408 10.456ZM96.8147 5.788H98.0387V7.996H99.3827V8.944H98.0387V13H96.8147V8.944H95.9267V7.996H96.8147V5.788ZM100.718 7.984H101.93V13H100.718V7.984ZM100.658 6.184C100.658 6 100.73 5.844 100.874 5.716C101.026 5.588 101.19 5.524 101.366 5.524C101.542 5.524 101.702 5.588 101.846 5.716C101.99 5.844 102.062 6 102.062 6.184C102.062 6.384 101.99 6.544 101.846 6.664C101.702 6.784 101.542 6.844 101.366 6.844C101.19 6.844 101.026 6.784 100.874 6.664C100.73 6.544 100.658 6.384 100.658 6.184ZM104.915 7.984L105.023 9.148L104.975 8.98C105.135 8.62 105.391 8.332 105.743 8.116C106.103 7.9 106.523 7.792 107.003 7.792C107.475 7.792 107.863 7.932 108.167 8.212C108.471 8.484 108.627 8.844 108.635 9.292V13H107.423V9.712C107.415 9.456 107.339 9.248 107.195 9.088C107.051 8.92 106.827 8.832 106.523 8.824C106.099 8.824 105.743 9 105.455 9.352C105.175 9.704 105.035 10.156 105.035 10.708V13H103.823V7.984H104.915ZM112.638 13.12C112.166 13.12 111.738 13.02 111.354 12.82C110.97 12.62 110.666 12.328 110.442 11.944C110.218 11.552 110.106 11.068 110.106 10.492C110.106 9.932 110.222 9.452 110.454 9.052C110.694 8.644 111.006 8.332 111.39 8.116C111.782 7.892 112.206 7.78 112.662 7.78C113.142 7.78 113.538 7.88 113.85 8.08C114.162 8.28 114.402 8.52 114.57 8.8L114.498 8.992L114.618 7.984H115.734V13H114.522V11.728L114.642 12.028C114.61 12.092 114.542 12.184 114.438 12.304C114.334 12.424 114.198 12.548 114.03 12.676C113.862 12.796 113.658 12.9 113.418 12.988C113.186 13.076 112.926 13.12 112.638 13.12ZM112.962 12.124C113.362 12.124 113.698 12.02 113.97 11.812C114.25 11.596 114.434 11.304 114.522 10.936V9.904C114.426 9.576 114.23 9.304 113.934 9.088C113.646 8.872 113.31 8.764 112.926 8.764C112.638 8.764 112.374 8.836 112.134 8.98C111.894 9.116 111.702 9.312 111.558 9.568C111.414 9.816 111.342 10.104 111.342 10.432C111.342 10.752 111.414 11.04 111.558 11.296C111.71 11.552 111.91 11.756 112.158 11.908C112.406 12.052 112.674 12.124 112.962 12.124Z" fill="#18181B"/>
</svg>
